<?xml version="1.0" encoding="utf-8"?>
<!-- Generator: Adobe Illustrator 23.0.3, SVG Export Plug-In . SVG Version: 6.00 Build 0)  -->
<svg version="1.1" id="Слой_1" xmlns="http://www.w3.org/2000/svg" xmlns:xlink="http://www.w3.org/1999/xlink" x="0px" y="0px"
	 viewBox="0 0 144 41" style="enable-background:new 0 0 144 41;" xml:space="preserve">
<style type="text/css">
	.st0{fill-rule:evenodd;clip-rule:evenodd;fill:#FFFFFF;}
</style>
<title>header_white</title>
<desc>Created with Sketch.</desc>
<polygon id="Fill-1" class="st0" points="69.7,11.3 81.9,11.3 81.9,13.9 72.6,13.9 72.6,18.1 80.8,18.1 80.8,20.7 72.6,20.7 
	72.6,25.1 82,25.1 82,27.7 69.7,27.7 "/>
<path id="Fill-2" class="st0" d="M95.1,20.1c2.1,0,3.4-1.3,3.4-3.1v0c0-2.1-1.3-3.1-3.4-3.1h-3.2v6.3H95.1z M89.2,11.3H96
	c4,0,5.5,2.2,5.5,5.5c0,3.7-2.1,5.6-5.9,5.6h-3.4v5.3h-3V11.3z"/>
<polygon id="Fill-4" class="st0" points="122,27.7 119.2,27.7 119.2,16 111,27.7 108.7,27.7 108.7,11.3 111.4,11.3 111.4,22.6 
	119.4,11.3 122,11.3 "/>
<polygon id="Fill-6" class="st0" points="143.3,11.3 137.5,19.3 143.5,27.7 140.1,27.7 135.8,21.4 131.4,27.7 128.1,27.7 
	134.1,19.3 128.4,11.3 131.8,11.3 135.8,17.2 140,11.3 "/>
<polygon id="Fill-8" class="st0" points="62.5,24.3 62.5,11.3 59.7,11.3 59.7,24.3 52,24.3 52,11.3 49.2,11.3 49.2,26.9 62.5,26.9 
	62.5,28.7 64,28.7 65.6,24.3 "/>
<image style="overflow:visible;enable-background:new    ;" width="78" height="86" id="Bitmap" xlink:href="9306BDB9.png"  transform="matrix(0.4767 0 0 0.4767 0.882 -6.728313e-06)">
</image>
</svg>
